<svg xmlns="http://www.w3.org/2000/svg" viewBox="0 0 115.05 17.65"><g data-name="Calque 2"><path d="M5.54 17.37H.27c-.19 0-.27-.08-.27-.27V.56C0 .37.09.29.28.29h5.26A4.42 4.42 0 0 1 10.29 5v.3a3.75 3.75 0 0 1-.9 2.25c-.57.73-1.33.92-1.33 1.14s.08.16.16.24c1.22.92 2.06 1.68 2.06 3.34v.41a4.4 4.4 0 0 1-4.75 4.69M8.47 4.72a2.89 2.89 0 0 0-2.93-2.88H2.1c-.19 0-.27.08-.27.27v5.54c0 .19.08.27.27.27h3.44A2.89 2.89 0 0 0 8.47 5zm0 7.63a2.89 2.89 0 0 0-2.93-2.88H2.09c-.19 0-.27.08-.27.27v5.81c0 .19.08.27.27.27h3.45a2.88 2.88 0 0 0 2.93-2.9zm11.94 5.3h-.84c-2.88 0-4.72-1.79-4.72-4.45V4.45C14.85 1.79 16.7 0 19.58 0h.84c2.88 0 4.75 1.82 4.75 4.45v8.75c0 2.66-1.87 4.45-4.75 4.45m2.9-13.2a2.87 2.87 0 0 0-2.9-2.88h-.84a2.83 2.83 0 0 0-2.88 2.88v8.74a2.87 2.87 0 0 0 2.88 2.91h.84a2.93 2.93 0 0 0 2.91-2.9zm17.1 10.81c0 .87-1.66 2.39-4.21 2.39h-.84c-2.88 0-4.72-1.79-4.72-4.45V4.46C30.65 1.8 32.5 0 35.38 0h.84c2.5 0 4.23 1.47 4.23 2.36 0 .08-.08.16-.19.22l-1.14.57a.3.3 0 0 1-.14 0c-.08 0-.11 0-.19-.11-.81-.79-1.41-1.49-2.58-1.49h-.84a2.83 2.83 0 0 0-2.87 2.91v8.74a2.87 2.87 0 0 0 2.88 2.91h.84a2.74 2.74 0 0 0 1.78-.68c.6-.57.84-1 1-1a.29.29 0 0 1 .14 0l1.14.57c.14.05.16.11.16.22m15.34 1.92c0 .16-.11.24-.3.24H54.1c-.16 0-.24-.05-.27-.19l-1.06-3.75c0-.14-.11-.16-.27-.16h-5.1c-.16 0-.24 0-.27.16l-1.06 3.75a.24.24 0 0 1-.27.19h-1.39c-.19 0-.3-.08-.3-.24v-.11L49.17.5a.24.24 0 0 1 .27-.19h1a.26.26 0 0 1 .27.19l5 16.53v.11M50.33 4.41c0-.11-.14-.46-.3-1.06h-.11c-.11.43-.22.79-.3 1.06l-1.93 7v.11c0 .03.11.24.3.24h3.91c.19 0 .3-.08.3-.24v-.11zm10.75-.04c0 1.22.84 2.12 2.58 2.93a21.91 21.91 0 0 1 3.58 1.9 4.75 4.75 0 0 1 1.9 4c0 2.66-1.85 4.45-4.75 4.45h-1.17c-2.58 0-4.21-1.52-4.21-2.36 0-.11.05-.16.16-.22l1.14-.6a.29.29 0 0 1 .14 0c.11 0 .14.05.22.14.76.79 1.3 1.52 2.55 1.52h1.17a2.88 2.88 0 0 0 2.93-2.9c0-1.82-1.38-2.53-3.69-3.64-2.8-1.36-4.4-2.34-4.4-5.11S61.08 0 64 0h.43c2.55 0 4.23 1.52 4.23 2.39 0 .08-.08.14-.19.19l-1.14.57a.3.3 0 0 1-.14 0 .2.2 0 0 1-.19-.08c-.76-.79-1.33-1.49-2.58-1.49H64a2.81 2.81 0 0 0-2.88 2.8m23.49 12.76c0 .16-.11.24-.3.24h-1.38c-.16 0-.24-.05-.27-.19l-1.06-3.75c0-.14-.11-.16-.27-.16h-5.1c-.16 0-.24 0-.27.16l-1.06 3.75a.24.24 0 0 1-.27.19h-1.39c-.19 0-.3-.08-.3-.24v-.11L78 .49a.24.24 0 0 1 .26-.19h1a.26.26 0 0 1 .27.19l5 16.53v.11M79.16 4.4c0-.11-.14-.46-.3-1.06h-.11c-.11.43-.22.79-.3 1.06l-1.93 7v.11c0 .03.11.24.3.24h3.88c.19 0 .3-.08.3-.24v-.11zm16.12 5.09v7.63c0 .19-.08.27-.27.27h-1.33c-.19 0-.27-.08-.27-.27V9.48L88.77.71a.29.29 0 0 1-.05-.19c0-.14.08-.22.3-.22h1.55l.24.16 3.34 6.84a.25.25 0 0 0 .49 0L97.92.47l.24-.16h1.55c.19 0 .3.08.3.22a.69.69 0 0 1-.05.19zm19.4 8.11H103a.37.37 0 0 1-.37-.37v-1.86A.37.37 0 0 1 103 15h11.68a.37.37 0 0 1 .37.37v1.86a.37.37 0 0 1-.37.37" fill="#fff" data-name="Layer 1"/></g></svg>